<svg width="41" height="41" viewBox="0 0 41 41" fill="none" xmlns="http://www.w3.org/2000/svg">
<rect x="0.703125" y="0.660156" width="39.99" height="39.99" rx="19.995" fill="#FBA4A9"/>
<path d="M28.6965 21.6541C28.6965 26.652 25.1979 29.1509 21.0397 30.6003C20.8219 30.6741 20.5854 30.6706 20.3699 30.5903C16.2017 29.1509 12.7031 26.652 12.7031 21.6541V14.657C12.7031 14.3919 12.8084 14.1376 12.9959 13.9502C13.1834 13.7627 13.4376 13.6574 13.7027 13.6574C15.7019 13.6574 18.2008 12.4579 19.9401 10.9385C20.1519 10.7576 20.4213 10.6582 20.6998 10.6582C20.9783 10.6582 21.2477 10.7576 21.4595 10.9385C23.2087 12.4679 25.6977 13.6574 27.6969 13.6574C27.962 13.6574 28.2162 13.7627 28.4037 13.9502C28.5911 14.1376 28.6965 14.3919 28.6965 14.657V21.6541Z" stroke="#86161B" stroke-width="1.99917" stroke-linecap="round" stroke-linejoin="round"/>
</svg>
