<svg width="17" height="17" viewBox="0 0 17 17" fill="none" xmlns="http://www.w3.org/2000/svg">
<path d="M10.7435 2.26465H4.74349C4.38987 2.26465 4.05073 2.40512 3.80068 2.65517C3.55063 2.90522 3.41016 3.24436 3.41016 3.59798V14.2646C3.41016 14.6183 3.55063 14.9574 3.80068 15.2075C4.05073 15.4575 4.38987 15.598 4.74349 15.598H12.7435C13.0971 15.598 13.4362 15.4575 13.6863 15.2075C13.9363 14.9574 14.0768 14.6183 14.0768 14.2646V5.59798L10.7435 2.26465Z" stroke="#1D4ED8" stroke-width="1.33333" stroke-linecap="round" stroke-linejoin="round"/>
<path d="M10.0742 2.26465V4.93131C10.0742 5.28494 10.2147 5.62408 10.4647 5.87412C10.7148 6.12417 11.0539 6.26465 11.4076 6.26465H14.0742" stroke="#1D4ED8" stroke-width="1.33333" stroke-linecap="round" stroke-linejoin="round"/>
<path d="M7.40717 6.93164H6.07422" stroke="#1D4ED8" stroke-width="1.33333" stroke-linecap="round" stroke-linejoin="round"/>
<path d="M11.4076 9.59863H6.07422" stroke="#1D4ED8" stroke-width="1.33333" stroke-linecap="round" stroke-linejoin="round"/>
<path d="M11.4076 12.2646H6.07422" stroke="#1D4ED8" stroke-width="1.33333" stroke-linecap="round" stroke-linejoin="round"/>
</svg>
