<svg width="16" height="16" viewBox="0 0 16 16" fill="none" xmlns="http://www.w3.org/2000/svg">
<path d="M6 2H2.66667C2.29848 2 2 2.29848 2 2.66667V6C2 6.36819 2.29848 6.66667 2.66667 6.66667H6C6.36819 6.66667 6.66667 6.36819 6.66667 6V2.66667C6.66667 2.29848 6.36819 2 6 2Z" stroke="#979797" stroke-width="1.33333" stroke-linecap="round" stroke-linejoin="round"/>
<path d="M13.332 2H9.9987C9.63051 2 9.33203 2.29848 9.33203 2.66667V6C9.33203 6.36819 9.63051 6.66667 9.9987 6.66667H13.332C13.7002 6.66667 13.9987 6.36819 13.9987 6V2.66667C13.9987 2.29848 13.7002 2 13.332 2Z" stroke="#979797" stroke-width="1.33333" stroke-linecap="round" stroke-linejoin="round"/>
<path d="M13.332 9.33301H9.9987C9.63051 9.33301 9.33203 9.63148 9.33203 9.99967V13.333C9.33203 13.7012 9.63051 13.9997 9.9987 13.9997H13.332C13.7002 13.9997 13.9987 13.7012 13.9987 13.333V9.99967C13.9987 9.63148 13.7002 9.33301 13.332 9.33301Z" stroke="#979797" stroke-width="1.33333" stroke-linecap="round" stroke-linejoin="round"/>
<path d="M6 9.33301H2.66667C2.29848 9.33301 2 9.63148 2 9.99967V13.333C2 13.7012 2.29848 13.9997 2.66667 13.9997H6C6.36819 13.9997 6.66667 13.7012 6.66667 13.333V9.99967C6.66667 9.63148 6.36819 9.33301 6 9.33301Z" stroke="#979797" stroke-width="1.33333" stroke-linecap="round" stroke-linejoin="round"/>
</svg>
