<svg width="138" height="139" viewBox="0 0 138 139" fill="none" xmlns="http://www.w3.org/2000/svg">
<g clip-path="url(#clip0_1082_4306)">
<path fill-rule="evenodd" clip-rule="evenodd" d="M108.738 37.4846C108.738 61.1122 95.7283 72.0005 72.1007 72.0005C62.0211 72.0005 39.1639 71.8877 42.1429 76.2327C40.1571 74.6487 38.3154 72.892 36.6395 70.9831C33.3086 61.4517 33.3086 53.5774 33.3086 42.7669C33.3086 19.1393 41.9432 22.4318 65.5686 22.4318C83.0465 22.4318 106.997 27.8382 107.944 25.4841C108.409 26.5369 108.832 27.6084 109.212 28.6988C109.129 30.9503 108.738 32.5565 108.738 37.4846Z" fill="white"/>
<path d="M111.582 42.773C111.583 50.8294 109.309 58.7223 105.022 65.5433C100.735 72.3643 94.6088 77.836 87.3489 81.3288C80.089 84.8215 71.9904 86.1933 63.9852 85.2863C55.98 84.3792 48.3937 81.2302 42.0993 76.2016L42.0937 76.1937C36.182 67.9178 38.2845 60.2194 38.2845 60.2194C38.7804 62.349 39.9641 64.256 41.6525 65.6455C43.3409 67.035 45.44 67.8296 47.6253 67.9065C53.1783 68.2031 56.5284 62.7832 58.2666 55.5281C58.1459 63.8469 60.7616 68.0678 66.3552 67.9054C70.9799 67.6346 72.9471 63.7804 72.6538 57.4863H70.8773C71.5157 65.4622 65.5228 67.074 65.1246 60.419C65.1246 51.5971 64.9351 42.7775 64.9351 33.959C62.4434 33.959 60.3364 33.9714 57.8469 33.9714C57.8469 39.9948 58.262 46.0204 57.2457 52.0416C56.437 56.4147 55.0067 60.3479 52.7891 62.4245C48.7352 66.2213 43.5059 65.3573 43.6909 57.1468C43.6909 49.3085 43.6345 41.7443 43.6345 33.9105H36.6659C36.6659 46.2761 36.6572 58.6346 36.6399 70.9859C32.5759 66.3495 29.5619 60.8895 27.8044 54.9799C26.0469 49.0703 25.5874 42.8507 26.4574 36.747C27.3273 30.6432 29.5062 24.7996 32.8448 19.6164C36.1834 14.4331 40.6028 10.0327 45.8003 6.71637C50.9979 3.40007 56.8508 1.2463 62.9582 0.402542C69.0656 -0.441213 75.2832 0.0449908 81.1852 1.82785C87.0872 3.61071 92.5342 6.64811 97.153 10.732C101.772 14.8159 105.454 19.8499 107.946 25.4891C107.922 25.6174 107.87 25.7389 107.793 25.8449C107.717 25.9509 107.619 26.0389 107.505 26.1027C104.716 27.7811 90.0889 25.9831 83.4609 26.6306C79.0721 27.1152 75.0218 29.219 72.1015 32.5308C69.1812 35.8427 67.6008 40.1245 67.6693 44.5394C67.8532 55.5168 75.4997 61.8267 86.9396 61.8267C98.3795 61.8267 105.608 54.8728 105.89 43.9878C105.96 41.3155 105.254 38.68 103.856 36.4015C102.457 34.1231 100.428 32.2996 98.0129 31.1526C102.444 31.5339 107.947 32.2806 109.074 29.1674C109.074 29.1528 109.203 28.7546 109.216 28.7038C110.788 33.2277 111.588 37.9838 111.582 42.773ZM83.6527 28.873C77.5323 30.0799 74.0773 36.2319 75.7208 46.2731C77.3643 56.3143 83.8805 60.331 89.9998 59.1252C96.119 57.9194 99.5717 51.9897 97.5572 41.4409C95.5426 30.8921 89.7708 27.6627 83.6527 28.873Z" fill="url(#paint0_radial_1082_4306)"/>
<mask id="path-3-inside-1_1082_4306" fill="white">
<path d="M44.0986 127.696C44.0986 129.336 44.1313 130.772 44.2309 132.023H41.6449L41.4784 129.432H41.4115C40.8707 130.345 40.0944 131.099 39.1622 131.617C38.2299 132.136 37.1752 132.4 36.1057 132.383C33.5851 132.383 30.5681 130.999 30.5681 125.431V116.152H33.4871V124.947C33.4871 127.963 34.4206 129.996 37.0658 129.996C37.8969 129.982 38.7055 129.725 39.3898 129.259C40.0741 128.792 40.6037 128.136 40.9121 127.373C41.0891 126.901 41.1792 126.401 41.1781 125.897V116.16H44.0971V127.697L44.0986 127.696ZM55.6718 128.548C57.2352 129.477 59.0215 129.975 60.8453 129.991C63.8016 129.991 65.5209 128.453 65.5209 126.22C65.5209 124.154 64.3275 122.974 61.309 121.827C57.6618 120.548 55.4057 118.679 55.4057 115.564C55.4057 112.121 58.2904 109.565 62.6346 109.565C64.3474 109.506 66.0474 109.876 67.5763 110.642L66.7797 112.969C65.4751 112.276 64.0162 111.915 62.535 111.92C59.4838 111.92 58.3231 113.723 58.3231 115.232C58.3231 117.298 59.683 118.309 62.7669 119.495C66.5478 120.938 68.471 122.741 68.471 125.987C68.471 129.397 65.9177 132.38 60.6446 132.38C58.649 132.395 56.6837 131.898 54.9405 130.937L55.6718 128.548ZM75.5676 111.695C75.5538 112.16 75.3574 112.601 75.02 112.925C74.6826 113.249 74.2308 113.43 73.7604 113.43C73.2901 113.43 72.8383 113.249 72.5009 112.925C72.1634 112.601 71.967 112.16 71.9532 111.695C71.947 111.457 71.9899 111.22 72.0794 110.998C72.1688 110.777 72.3029 110.575 72.4735 110.407C72.6441 110.238 72.8476 110.106 73.0716 110.017C73.2957 109.929 73.5356 109.886 73.7767 109.892C74.0172 109.884 74.2568 109.925 74.4802 110.013C74.7036 110.101 74.9061 110.235 75.0746 110.404C75.243 110.574 75.3739 110.777 75.4588 110.999C75.5437 111.222 75.5808 111.459 75.5676 111.697V111.695ZM72.3173 132.023V116.155H75.2362V132.023H72.3173ZM93.7722 129.728C93.7722 133.368 93.0425 135.597 91.4834 136.973C89.8455 138.304 87.7642 138.982 85.6471 138.875C83.78 138.922 81.9348 138.468 80.3071 137.563L81.0368 135.366C82.4615 136.199 84.09 136.63 85.7451 136.612C88.7294 136.612 90.9186 135.074 90.9186 131.074V129.303H90.8517C90.3141 130.153 89.5582 130.846 88.661 131.313C87.7639 131.779 86.7578 132.002 85.7451 131.958C81.765 131.958 78.9145 128.614 78.9145 124.221C78.9145 118.836 82.4636 115.795 86.1434 115.795C87.1564 115.736 88.1655 115.964 89.0523 116.451C89.9391 116.939 90.6669 117.667 91.1505 118.549H91.2174L91.3496 116.155H93.9029C93.836 117.303 93.7707 118.581 93.7707 120.516L93.7722 129.728ZM90.8875 122.416C90.9041 121.973 90.8479 121.53 90.721 121.104C90.4752 120.223 89.9424 119.447 89.2051 118.895C88.4678 118.344 87.5672 118.049 86.6429 118.055C83.8577 118.055 81.8677 120.382 81.8677 124.054C81.8677 127.17 83.4594 129.759 86.6102 129.759C87.5136 129.754 88.3922 129.465 89.1192 128.935C89.8462 128.405 90.3842 127.66 90.6557 126.808C90.8134 126.31 90.8916 125.791 90.8875 125.27V122.416ZM98.4152 120.448C98.4152 118.809 98.3825 117.464 98.2829 116.153H100.836L100.968 118.712H101.068C101.548 117.808 102.275 117.055 103.166 116.539C104.056 116.022 105.076 115.762 106.108 115.789C107.107 115.778 108.085 116.08 108.901 116.651C109.716 117.222 110.329 118.033 110.651 118.969H110.718C111.162 118.163 111.772 117.459 112.509 116.903C113.524 116.133 114.779 115.738 116.057 115.787C118.179 115.787 121.33 117.164 121.33 122.673V132.023H118.478V123.039C118.478 119.99 117.349 118.153 114.995 118.153C114.217 118.186 113.468 118.455 112.85 118.924C112.233 119.394 111.777 120.041 111.546 120.776C111.394 121.242 111.316 121.729 111.314 122.219V132.023H108.462V122.516C108.462 119.992 107.334 118.155 105.112 118.155C104.049 118.279 103.07 118.785 102.36 119.577C101.651 120.369 101.261 121.392 101.266 122.45V132.023H98.4136V120.45L98.4152 120.448ZM137.347 128.219C137.325 129.492 137.414 130.764 137.613 132.022H134.967L134.736 130.022H134.636C134.066 130.772 133.324 131.378 132.47 131.789C131.616 132.199 130.676 132.403 129.727 132.383C129.096 132.429 128.462 132.345 127.866 132.136C127.269 131.927 126.723 131.598 126.262 131.17C125.801 130.741 125.434 130.223 125.186 129.648C124.938 129.072 124.813 128.452 124.82 127.826C124.82 123.991 128.269 121.892 134.466 121.925V121.598C134.531 121.106 134.481 120.607 134.322 120.137C134.162 119.667 133.897 119.239 133.546 118.885C133.194 118.532 132.767 118.261 132.294 118.095C131.822 117.929 131.318 117.871 130.819 117.926C129.343 117.93 127.897 118.338 126.642 119.106L125.979 117.204C127.569 116.257 129.396 115.768 131.252 115.793C136.159 115.793 137.354 119.106 137.354 122.285V128.22L137.347 128.219ZM134.527 123.924C131.344 123.857 127.729 124.416 127.729 127.497C127.699 127.864 127.75 128.232 127.877 128.577C128.004 128.923 128.205 129.237 128.467 129.498C128.728 129.76 129.043 129.962 129.391 130.092C129.739 130.222 130.111 130.276 130.482 130.251C131.33 130.273 132.163 130.028 132.861 129.551C133.559 129.073 134.085 128.389 134.362 127.596C134.466 127.298 134.521 126.987 134.527 126.673V123.919V123.924ZM22.1567 122.318C21.9684 119.241 21.7412 115.53 21.7786 112.78H21.6743C20.8046 115.37 19.745 118.164 18.4598 121.173L13.96 131.894H11.4704L7.34872 121.368C6.21872 118.556 5.23206 115.689 4.39244 112.778H4.31618C4.23993 115.532 4.05167 119.239 3.82451 122.548L3.14456 132.023H0L1.77689 109.925H5.97794L10.3268 120.613C11.3849 123.334 12.2562 125.76 12.8988 128.056H13.0124C13.7775 125.531 14.6739 123.047 15.6979 120.613L20.2351 109.925H24.4361L26.0154 132.023H22.8008L22.1567 122.318Z"/>
</mask>
<path d="M44.0986 127.696C44.0986 129.336 44.1313 130.772 44.2309 132.023H41.6449L41.4784 129.432H41.4115C40.8707 130.345 40.0944 131.099 39.1622 131.617C38.2299 132.136 37.1752 132.4 36.1057 132.383C33.5851 132.383 30.5681 130.999 30.5681 125.431V116.152H33.4871V124.947C33.4871 127.963 34.4206 129.996 37.0658 129.996C37.8969 129.982 38.7055 129.725 39.3898 129.259C40.0741 128.792 40.6037 128.136 40.9121 127.373C41.0891 126.901 41.1792 126.401 41.1781 125.897V116.16H44.0971V127.697L44.0986 127.696ZM55.6718 128.548C57.2352 129.477 59.0215 129.975 60.8453 129.991C63.8016 129.991 65.5209 128.453 65.5209 126.22C65.5209 124.154 64.3275 122.974 61.309 121.827C57.6618 120.548 55.4057 118.679 55.4057 115.564C55.4057 112.121 58.2904 109.565 62.6346 109.565C64.3474 109.506 66.0474 109.876 67.5763 110.642L66.7797 112.969C65.4751 112.276 64.0162 111.915 62.535 111.92C59.4838 111.92 58.3231 113.723 58.3231 115.232C58.3231 117.298 59.683 118.309 62.7669 119.495C66.5478 120.938 68.471 122.741 68.471 125.987C68.471 129.397 65.9177 132.38 60.6446 132.38C58.649 132.395 56.6837 131.898 54.9405 130.937L55.6718 128.548ZM75.5676 111.695C75.5538 112.16 75.3574 112.601 75.02 112.925C74.6826 113.249 74.2308 113.43 73.7604 113.43C73.2901 113.43 72.8383 113.249 72.5009 112.925C72.1634 112.601 71.967 112.16 71.9532 111.695C71.947 111.457 71.9899 111.22 72.0794 110.998C72.1688 110.777 72.3029 110.575 72.4735 110.407C72.6441 110.238 72.8476 110.106 73.0716 110.017C73.2957 109.929 73.5356 109.886 73.7767 109.892C74.0172 109.884 74.2568 109.925 74.4802 110.013C74.7036 110.101 74.9061 110.235 75.0746 110.404C75.243 110.574 75.3739 110.777 75.4588 110.999C75.5437 111.222 75.5808 111.459 75.5676 111.697V111.695ZM72.3173 132.023V116.155H75.2362V132.023H72.3173ZM93.7722 129.728C93.7722 133.368 93.0425 135.597 91.4834 136.973C89.8455 138.304 87.7642 138.982 85.6471 138.875C83.78 138.922 81.9348 138.468 80.3071 137.563L81.0368 135.366C82.4615 136.199 84.09 136.63 85.7451 136.612C88.7294 136.612 90.9186 135.074 90.9186 131.074V129.303H90.8517C90.3141 130.153 89.5582 130.846 88.661 131.313C87.7639 131.779 86.7578 132.002 85.7451 131.958C81.765 131.958 78.9145 128.614 78.9145 124.221C78.9145 118.836 82.4636 115.795 86.1434 115.795C87.1564 115.736 88.1655 115.964 89.0523 116.451C89.9391 116.939 90.6669 117.667 91.1505 118.549H91.2174L91.3496 116.155H93.9029C93.836 117.303 93.7707 118.581 93.7707 120.516L93.7722 129.728ZM90.8875 122.416C90.9041 121.973 90.8479 121.53 90.721 121.104C90.4752 120.223 89.9424 119.447 89.2051 118.895C88.4678 118.344 87.5672 118.049 86.6429 118.055C83.8577 118.055 81.8677 120.382 81.8677 124.054C81.8677 127.17 83.4594 129.759 86.6102 129.759C87.5136 129.754 88.3922 129.465 89.1192 128.935C89.8462 128.405 90.3842 127.66 90.6557 126.808C90.8134 126.31 90.8916 125.791 90.8875 125.27V122.416ZM98.4152 120.448C98.4152 118.809 98.3825 117.464 98.2829 116.153H100.836L100.968 118.712H101.068C101.548 117.808 102.275 117.055 103.166 116.539C104.056 116.022 105.076 115.762 106.108 115.789C107.107 115.778 108.085 116.08 108.901 116.651C109.716 117.222 110.329 118.033 110.651 118.969H110.718C111.162 118.163 111.772 117.459 112.509 116.903C113.524 116.133 114.779 115.738 116.057 115.787C118.179 115.787 121.33 117.164 121.33 122.673V132.023H118.478V123.039C118.478 119.99 117.349 118.153 114.995 118.153C114.217 118.186 113.468 118.455 112.85 118.924C112.233 119.394 111.777 120.041 111.546 120.776C111.394 121.242 111.316 121.729 111.314 122.219V132.023H108.462V122.516C108.462 119.992 107.334 118.155 105.112 118.155C104.049 118.279 103.07 118.785 102.36 119.577C101.651 120.369 101.261 121.392 101.266 122.45V132.023H98.4136V120.45L98.4152 120.448ZM137.347 128.219C137.325 129.492 137.414 130.764 137.613 132.022H134.967L134.736 130.022H134.636C134.066 130.772 133.324 131.378 132.47 131.789C131.616 132.199 130.676 132.403 129.727 132.383C129.096 132.429 128.462 132.345 127.866 132.136C127.269 131.927 126.723 131.598 126.262 131.17C125.801 130.741 125.434 130.223 125.186 129.648C124.938 129.072 124.813 128.452 124.82 127.826C124.82 123.991 128.269 121.892 134.466 121.925V121.598C134.531 121.106 134.481 120.607 134.322 120.137C134.162 119.667 133.897 119.239 133.546 118.885C133.194 118.532 132.767 118.261 132.294 118.095C131.822 117.929 131.318 117.871 130.819 117.926C129.343 117.93 127.897 118.338 126.642 119.106L125.979 117.204C127.569 116.257 129.396 115.768 131.252 115.793C136.159 115.793 137.354 119.106 137.354 122.285V128.22L137.347 128.219ZM134.527 123.924C131.344 123.857 127.729 124.416 127.729 127.497C127.699 127.864 127.75 128.232 127.877 128.577C128.004 128.923 128.205 129.237 128.467 129.498C128.728 129.76 129.043 129.962 129.391 130.092C129.739 130.222 130.111 130.276 130.482 130.251C131.33 130.273 132.163 130.028 132.861 129.551C133.559 129.073 134.085 128.389 134.362 127.596C134.466 127.298 134.521 126.987 134.527 126.673V123.919V123.924ZM22.1567 122.318C21.9684 119.241 21.7412 115.53 21.7786 112.78H21.6743C20.8046 115.37 19.745 118.164 18.4598 121.173L13.96 131.894H11.4704L7.34872 121.368C6.21872 118.556 5.23206 115.689 4.39244 112.778H4.31618C4.23993 115.532 4.05167 119.239 3.82451 122.548L3.14456 132.023H0L1.77689 109.925H5.97794L10.3268 120.613C11.3849 123.334 12.2562 125.76 12.8988 128.056H13.0124C13.7775 125.531 14.6739 123.047 15.6979 120.613L20.2351 109.925H24.4361L26.0154 132.023H22.8008L22.1567 122.318Z" fill="#303030" stroke="black" stroke-width="2" mask="url(#path-3-inside-1_1082_4306)"/>
</g>
<defs>
<radialGradient id="paint0_radial_1082_4306" cx="0" cy="0" r="1" gradientUnits="userSpaceOnUse" gradientTransform="translate(85.9774 25.3865) scale(53.1805 53.1805)">
<stop stop-color="#D45F28"/>
<stop offset="0.136" stop-color="#CF5827"/>
<stop offset="0.331" stop-color="#C24627"/>
<stop offset="0.479" stop-color="#B63325"/>
<stop offset="0.605" stop-color="#B02F24"/>
<stop offset="0.796" stop-color="#9E2520"/>
<stop offset="1" stop-color="#861719"/>
</radialGradient>
<clipPath id="clip0_1082_4306">
<rect width="137.613" height="138.886" fill="white"/>
</clipPath>
</defs>
</svg>
